<?xml version="1.0" encoding="utf-8"?>
<!-- Generator: Adobe Illustrator 25.0.0, SVG Export Plug-In . SVG Version: 6.00 Build 0)  -->
<svg version="1.1" id="Capa_1" xmlns="http://www.w3.org/2000/svg" xmlns:xlink="http://www.w3.org/1999/xlink" x="0px" y="0px"
	 viewBox="0 0 800 800" style="enable-background:new 0 0 800 800;" xml:space="preserve">
<style type="text/css">
	.st0{fill:#0070FF;}
	.st1{fill:#BCD5FF;}
</style>
<path class="st0" d="M68.2,799"/>
<path class="st0" d="M796.9,164.9c-34.6,17.5-30.9,47.6-30.9,47.6v407.8c0,0,2.8,159.3-216.6,135c-152.3-16.7-124.7-183-124.7-183
	l107.1-2.8c0,0-17,106.5,66.4,102.6c72.1-3.4,62.8-73.4,62.8-73.4L659,269.8c0,0-135.3-25.4-131.6,88.3H423.7
	c0,0-17.5-132.5,114.7-189.3c0,0,26.7-3.6,39.1-4.3C590,164,796.9,164.9,796.9,164.9z"/>
<path class="st0" d="M3.1,164.9c35.1,17.5,31.4,47.6,31.4,47.6v407.8c0,0-2.8,159.3,220.1,135c154.8-16.7,126.8-183,126.8-183
	l-108.8-2.8c0,0,17.3,106.5-67.5,102.6c-73.3-3.4-63.8-73.4-63.8-73.4l1.9-328.9c0,0,137.5-25.4,133.8,88.3h105.4
	c0,0,17.8-132.5-116.6-189.3c0,0-27.1-3.6-39.7-4.3C213.3,164,3.1,164.9,3.1,164.9z"/>
<circle class="st1" cx="401.4" cy="461.1" r="258.5"/>
<path class="st0" d="M641.9,717.7H443.5c0,0,34.2-13.1,32.5-36.6c-1.7-22.8,0-350.9,0-374.1c0-1-0.3-1.7-0.7-2.4l-70.1-132.9
	c-2.1-3.8-7.3-3.8-9.3,0l-73.5,133.5c-0.3,0.7-0.7,1.7-0.7,2.4v374.2c0,0,13.1,35.9,47.3,35.9s-199.4,0-199.4,0s33.2-4.4,33.2-38.6
	V296.4c0-14.5,3.4-28.9,10.4-41.7l96.6-183.6c1.4-2.7,1.4-5.8-0.3-8.3l-10-16.2c-0.7-1,0-2.4,1.4-2.4h201c1.4,0,2.1,1.4,1.4,2.7
	l-12.4,16.2c-2.1,2.7-2.4,6.3-0.7,9l100,180.8c7.3,13.4,11.4,28.3,11.4,43.4v381.3C601.6,677.6,611.3,717.7,641.9,717.7z"/>
</svg>
