<?xml version="1.0" encoding="utf-8"?>
<!-- Generator: Adobe Illustrator 25.0.0, SVG Export Plug-In . SVG Version: 6.00 Build 0)  -->
<svg version="1.1" id="Capa_1" xmlns="http://www.w3.org/2000/svg" xmlns:xlink="http://www.w3.org/1999/xlink" x="0px" y="0px"
	 viewBox="0 0 900.2 209" style="enable-background:new 0 0 900.2 209;" xml:space="preserve">
<style type="text/css">
	.st0{fill:#0070FF;}
</style>
<path class="st0" d="M0,201.4c11.4-5.8,10.2-15.7,10.2-15.7l0-134.4c0,0-0.9-52.5,71.4-44.5c50.2,5.5,41.1,60.3,41.1,60.3L87.4,68
	c0,0,5.6-35.1-21.9-33.8c-23.8,1.1-20.7,24.2-20.7,24.2l0.6,108.4c0,0,44.6,8.4,43.4-29.1H123c0,0,5.8,43.7-37.8,62.4
	c0,0-8.8,1.2-12.9,1.4C68.2,201.7,0,201.4,0,201.4z"/>
<path class="st0" d="M133.2,5.9h56.9c0,0-10.5,4.7-10.5,10.5v127.1c0,8,3.8,15.7,10.4,20.3c7,4.9,16.7,7.2,27-4.5
	c3.2-3.6,4.8-8.2,4.8-13V16.2c0,0,0.3-9.7-7.4-10.2h55.6c0,0-9.7,2.9-9.7,10v134.2c0,9.5-2.7,18.9-8,26.8
	c-7.8,11.6-22.8,24.7-50.8,24.7c-34.2,0-49.7-20.9-56.2-34.4c-2.8-5.9-4.2-12.3-4.2-18.8V16.4C141.4,16.4,140.8,5.9,133.2,5.9z"/>
<path class="st0" d="M371.1,201.6c4.9,0,49.6,0,49.6,0s-51.6-77.5-46.9-82.1c4.8-0.9,52.1-24.6,31.4-80.8
	c-8.5-23.2-25.5-32.7-45-32.7h-72.1c0,0,10.5,1.2,10.5,7.2s0,180.5,0,180.5s-3.4,8.6-8.6,8.6c4.5,0,55.1,0,55.1,0s-8.2-3.4-8.2-8.2
	c0-4.8,0-69.2,0-69.2l38.9,69.9C375.9,194.8,377,201.6,371.1,201.6z M365.3,83.9c-1.8,1.7-4.2,2.7-6.6,2.7h-22.2V40.5H359
	c2.1,0,4.2,0.8,5.8,2.2C384.7,61,371.8,77.6,365.3,83.9z"/>
<path class="st0" d="M734.4,120.4c4.8-0.9,52.1-24.6,31.4-80.8c-8.5-23.2-25.5-32.7-45-32.7h-72.1c0,0,10.5,1.2,10.5,7.2
	c0,5.9,0,180.5,0,180.5s-3.4,8.6-8.6,8.6c4.5,0,55.1,0,55.1,0s-8.2-3.4-8.2-8.2c0-4.8,0-69.2,0-69.2S729.7,125.1,734.4,120.4z
	 M725.9,84.9c-1.8,1.7-4.2,2.7-6.6,2.7H697V41.5h22.5c2.1,0,4.2,0.8,5.8,2.2C745.3,62,732.4,78.6,725.9,84.9z"/>
<path class="st0" d="M572.6,6.9h59.1c0,0-10.6,4.7-10.6,10v174.9c0,2.5,0.9,5,2.5,6.9c2.3,2.8,5.8,6.3,8.2,6.3c3.9,0-59.1,0-59.1,0
	s10.2-4.1,10-10c-0.3-9.8,1.6-159.4,1.8-175.8c0-1.2-0.2-2.3-0.6-3.4C582.5,12.8,579.2,6.9,572.6,6.9z"/>
<path class="st0" d="M420.7,6.9h57.5c0,0-9.9,3.8-9.4,10.6c0.5,6.6,0,101.7,0,108.4c0,0.3,0.1,0.5,0.2,0.7l20.3,38.5
	c0.6,1.1,2.1,1.1,2.7,0l21.3-38.7c0.1-0.2,0.2-0.5,0.2-0.7V17.3c0,0-3.8-10.4-13.7-10.4c-9.9,0,57.8,0,57.8,0S548,8.2,548,18.1V129
	c0,4.2-1,8.4-3,12.1l-28,53.2c-0.4,0.8-0.4,1.7,0.1,2.4l2.9,4.7c0.2,0.3,0,0.7-0.4,0.7h-58.3c-0.4,0-0.6-0.4-0.4-0.8l3.6-4.7
	c0.6-0.8,0.7-1.8,0.2-2.6l-29-52.4c-2.1-3.9-3.3-8.2-3.3-12.6V18.5C432.4,18.5,429.6,6.9,420.7,6.9z"/>
<path class="st0" d="M863.1,72.7h36.4c0,0,5.4-65.8-57-65.8S782.8,62,784.8,72.7c3.9,20.3,20.6,31.7,39.5,43.5s39.3,18.5,37.4,34.5
	c-1,8.8-11.7,13.2-21.8,13.1c-9.9-0.1-17.9-8.2-18.3-18.1l-0.5-10l-36.4-0.4c0,0-8,66.2,56.4,66.2s59.6-59.6,58.6-65.1
	c-3.4-18.4-26.2-40.9-48.1-48.2c-23.9-8-35.3-24.5-28-36.3c5.7-9.2,23.5-9.3,29.9-4.9C866,55.8,863.1,72.7,863.1,72.7z"/>
</svg>
